<?xml version="1.0" encoding="utf-8"?>
<!-- Generator: Adobe Illustrator 23.0.6, SVG Export Plug-In . SVG Version: 6.00 Build 0)  -->
<svg version="1.1" id="Layer_1" xmlns="http://www.w3.org/2000/svg" xmlns:xlink="http://www.w3.org/1999/xlink" x="0px" y="0px"
	 viewBox="0 0 595.28 262" style="enable-background:new 0 0 595.28 262;" xml:space="preserve">
<style type="text/css">
	.st0{clip-path:url(#SVGID_2_);fill:#0061A0;}
	.st1{clip-path:url(#SVGID_2_);fill:none;stroke:#0061A0;stroke-width:1.646;stroke-linejoin:bevel;}
	.st2{clip-path:url(#SVGID_2_);fill:none;stroke:#0061A0;stroke-width:0.523;}
	.st3{clip-path:url(#SVGID_2_);fill:#FFFFFF;}
	.st4{clip-path:url(#SVGID_2_);fill:#00A94F;}
	.st5{clip-path:url(#SVGID_2_);fill:none;stroke:#FFFFFF;stroke-width:9.25;stroke-miterlimit:10;}
</style>
<g>
	<defs>
		<rect id="SVGID_1_" x="12.76" y="15.03" width="571.1" height="231.58"/>
	</defs>
	<clipPath id="SVGID_2_">
		<use xlink:href="#SVGID_1_"  style="overflow:visible;"/>
	</clipPath>
	<path class="st0" d="M33.04,288.95l12.1-5.12l-0.62-1.55c-2.95,0.47-3.72,2.02-4.19-1.08l-1.24-7.6c0-0.93,0-2.02,0.93-2.17
		l3.1-1.4c3.57-0.62,2.79-0.93,3.72,2.79l1.55,0.31L47,261.96l-1.24,0.31c0.62,3.41-0.46,5.12-2.95,6.36l-3.25,1.4
		c-0.93,0.15-0.93,0.46-1.09-0.62l-1.09-7.6c-0.31-1.55-0.78-2.95,0.62-3.26l4.97-2.17c3.88-1.55,5.43-2.17,6.67,1.55l1.86-0.77
		l-2.48-5.43l-19.85,7.6l0.16,0.93c2.79-0.46,3.72,0.31,4.19,3.1l2.02,18.92c0.47,2.95,0.93,3.41-2.17,4.03L33.04,288.95z"/>
	<path class="st0" d="M72.59,271.42l8.68-3.88l-0.31-1.08c-2.48,0.16-2.48,0.93-2.79-1.4l-1.7-10.7c0.78-2.02,1.39-3.1,2.32-3.1
		c0.62-0.15,1.4,0.93,2.64,0.78c0.93-0.16,1.4-0.93,1.24-2.17c-0.15-1.24-1.24-2.02-2.48-1.86c-1.4,0.15-2.79,1.71-4.03,4.5
		l-0.46-2.94c-1.55,0.93-3.41,2.63-5.58,4.19v0.93h1.55c1.86-0.46,1.09-1.86,1.55,0.31l1.24,10.55c0.31,2.48,0.31,4.18-2.02,4.65
		L72.59,271.42z"/>
	<path class="st0" d="M60.34,276.39c0.15,0,0.31-0.16,0.47-0.16v-1.09c-1.4-1.24-4.65-3.72-4.19-10.08
		c0.31-4.65,2.79-6.82,4.19-6.98v-1.86c-4.19,0.77-7.29,4.81-7.6,10.24C53.2,274.83,55.84,276.39,60.34,276.39 M60.8,276.23
		c4.5-0.31,7.6-3.72,8.38-9.61c0.77-5.89-1.71-10.08-6.51-10.39H60.8v1.86h0.47c2.94,0.15,3.57,4.04,3.72,10.39
		c-0.47,4.65-1.24,6.67-4.03,6.67H60.8V276.23z"/>
	<path class="st0" d="M91.89,269.24c-7.58,5.98-18.56,5.98-28,10.42l-27.84,12.72C53.07,282.27,71.32,272.15,91.89,269.24"/>
	<path class="st1" d="M91.89,269.24c-7.58,5.98-18.56,5.98-28,10.42l-27.84,12.72C53.07,282.27,71.32,272.15,91.89,269.24z"/>
	<path class="st0" d="M563.61,280.56v-1.98h-10.37v-5.76h9.32v-1.98h-9.32v-5.19h9.96v-1.98h-12.22v16.88H563.61z M525.88,265.56
		h5.37c1.25,0,2.17,0.26,2.75,0.77c0.58,0.51,0.87,1.17,0.87,1.96c0,0.54-0.15,1.05-0.45,1.51c-0.3,0.46-0.74,0.8-1.31,1.01
		c-0.58,0.21-1.38,0.32-2.4,0.32h-4.82V265.56z M525.88,280.56v-7.5h2.6c0.58,0,1,0.03,1.25,0.08c0.34,0.08,0.69,0.23,1.02,0.44
		c0.34,0.21,0.72,0.59,1.14,1.13c0.42,0.54,0.96,1.32,1.62,2.33l2.24,3.52h2.8l-2.93-4.61c-0.58-0.9-1.2-1.65-1.86-2.25
		c-0.31-0.28-0.76-0.56-1.35-0.84c1.63-0.22,2.83-0.74,3.61-1.56c0.78-0.82,1.17-1.83,1.17-3.02c0-0.93-0.24-1.77-0.71-2.54
		c-0.47-0.76-1.1-1.3-1.88-1.6c-0.79-0.3-1.93-0.45-3.44-0.45h-7.53v16.88H525.88z M502.51,268.69c0.38-1.07,0.68-2.16,0.93-3.26
		c0.27,0.92,0.67,2.1,1.2,3.52l1.78,4.68h-5.78L502.51,268.69z M498.14,280.56l1.87-5.12h7.13l1.94,5.12h2.55l-6.9-16.88h-2.47
		l-6.52,16.88H498.14z M480.62,277.84c-0.87,0.72-1.93,1.08-3.18,1.08c-1.03,0-1.99-0.27-2.87-0.8c-0.89-0.53-1.54-1.33-1.96-2.4
		c-0.42-1.07-0.63-2.32-0.63-3.76c0-1.11,0.18-2.19,0.53-3.24c0.35-1.05,0.96-1.88,1.84-2.5c0.87-0.62,1.96-0.93,3.25-0.93
		c1.13,0,2.06,0.28,2.81,0.84c0.74,0.56,1.31,1.45,1.7,2.68l2.22-0.52c-0.45-1.56-1.26-2.76-2.41-3.62
		c-1.16-0.86-2.58-1.29-4.27-1.29c-1.49,0-2.86,0.34-4.1,1.02c-1.24,0.68-2.2,1.67-2.87,2.98c-0.67,1.31-1.01,2.84-1.01,4.6
		c0,1.61,0.3,3.12,0.9,4.52c0.6,1.41,1.47,2.48,2.61,3.22c1.14,0.74,2.63,1.11,4.45,1.11c1.76,0,3.26-0.48,4.48-1.44
		c1.22-0.96,2.07-2.36,2.54-4.2l-2.26-0.56C482.08,276.05,481.49,277.12,480.62,277.84 M440.27,280.56v-1.98h-10.36v-5.76h9.32
		v-1.98h-9.32v-5.19h9.96v-1.98h-12.21v16.88H440.27z M408.6,280.56v-7.15l6.76-9.73h-2.61l-3.3,4.96c-0.72,1.11-1.33,2.1-1.85,2.97
		c-0.52-0.95-1.11-1.89-1.74-2.83l-3.35-5.1h-2.7l6.53,9.73v7.15H408.6z M388.29,280.56v-1.98h-10.36v-5.76h9.32v-1.98h-9.32v-5.19
		h9.96v-1.98h-12.21v16.88H388.29z M345.54,280.56v-1.98h-10.36v-5.76h9.32v-1.98h-9.32v-5.19h9.96v-1.98h-12.21v16.88H345.54z
		 M319.99,280.56v-1.98h-8.35v-14.9h-2.25v16.88H319.99z M285.66,272.76h3.93c1.08,0,1.91,0.1,2.48,0.29
		c0.58,0.19,1.02,0.52,1.35,0.98c0.32,0.47,0.49,1.02,0.49,1.65c0,0.54-0.11,1.01-0.33,1.43c-0.22,0.41-0.51,0.73-0.86,0.94
		c-0.35,0.22-0.78,0.37-1.3,0.46c-0.29,0.05-0.8,0.08-1.53,0.08h-4.23V272.76z M285.66,265.66h3.39c1.22,0,2.08,0.08,2.58,0.24
		c0.5,0.16,0.89,0.45,1.16,0.88c0.27,0.43,0.4,0.92,0.4,1.49c0,0.59-0.14,1.09-0.43,1.48c-0.29,0.39-0.72,0.67-1.29,0.85
		c-0.43,0.13-1.15,0.2-2.14,0.2h-3.67V265.66z M289.87,280.56c1.08,0,1.99-0.09,2.74-0.28c0.74-0.19,1.36-0.47,1.86-0.84
		c0.49-0.37,0.91-0.89,1.24-1.57c0.34-0.68,0.51-1.41,0.51-2.2c0-0.98-0.28-1.83-0.83-2.55c-0.55-0.72-1.34-1.23-2.36-1.53
		c0.8-0.39,1.39-0.91,1.79-1.54c0.4-0.64,0.59-1.32,0.59-2.04c0-0.77-0.22-1.52-0.67-2.23c-0.45-0.71-1.06-1.24-1.84-1.58
		c-0.79-0.34-1.83-0.51-3.13-0.51h-6.38v16.88H289.87z M262.39,268.69c0.38-1.07,0.68-2.16,0.93-3.26c0.27,0.92,0.68,2.1,1.21,3.52
		l1.78,4.68h-5.79L262.39,268.69z M258.02,280.56l1.87-5.12h7.13l1.94,5.12h2.56l-6.89-16.88h-2.47l-6.52,16.88H258.02z
		 M232.44,265.66H236c1.33,0,2.3,0.11,2.9,0.35c0.83,0.32,1.54,0.96,2.12,1.91c0.58,0.95,0.87,2.31,0.87,4.08
		c0,1.28-0.15,2.37-0.44,3.26c-0.3,0.89-0.71,1.61-1.24,2.14c-0.38,0.38-0.89,0.67-1.52,0.88c-0.64,0.21-1.51,0.31-2.63,0.31h-3.62
		V265.66z M236.31,280.56c1.03,0,1.93-0.1,2.73-0.29c0.79-0.19,1.47-0.47,2.03-0.85c0.56-0.37,1.07-0.88,1.54-1.53
		c0.47-0.65,0.86-1.47,1.16-2.46c0.3-0.99,0.45-2.13,0.45-3.41c0-1.51-0.22-2.84-0.66-4.01c-0.44-1.17-1.12-2.13-2.01-2.88
		c-0.69-0.58-1.52-0.99-2.49-1.21c-0.69-0.16-1.7-0.24-3.02-0.24h-5.85v16.88H236.31z M205.18,265.56h5.36
		c1.25,0,2.17,0.26,2.75,0.77c0.58,0.51,0.87,1.17,0.87,1.96c0,0.54-0.15,1.05-0.45,1.51c-0.3,0.46-0.74,0.8-1.31,1.01
		c-0.57,0.21-1.38,0.32-2.4,0.32h-4.82V265.56z M205.18,280.56v-7.5h2.6c0.58,0,0.99,0.03,1.25,0.08c0.35,0.08,0.69,0.23,1.02,0.44
		c0.34,0.21,0.71,0.59,1.14,1.13c0.42,0.54,0.97,1.32,1.62,2.33l2.24,3.52h2.8l-2.93-4.61c-0.58-0.9-1.2-1.65-1.86-2.25
		c-0.31-0.28-0.76-0.56-1.35-0.84c1.62-0.22,2.83-0.74,3.61-1.56c0.78-0.82,1.17-1.83,1.17-3.02c0-0.93-0.24-1.77-0.71-2.54
		c-0.47-0.76-1.1-1.3-1.88-1.6c-0.79-0.3-1.94-0.45-3.45-0.45h-7.53v16.88H205.18z M177.64,266.92c1.14-1.09,2.51-1.63,4.09-1.63
		c1.12,0,2.12,0.28,3.02,0.85c0.9,0.56,1.58,1.36,2.04,2.38c0.47,1.02,0.7,2.22,0.7,3.6c0,2.17-0.54,3.85-1.64,5.03
		c-1.09,1.18-2.48,1.77-4.16,1.77c-1.66,0-3.03-0.59-4.13-1.76c-1.1-1.17-1.65-2.77-1.65-4.81
		C175.92,269.82,176.5,268.01,177.64,266.92 M174.58,276.54c0.65,1.33,1.6,2.37,2.86,3.14c1.26,0.77,2.68,1.15,4.28,1.15
		c1.47,0,2.85-0.35,4.12-1.04c1.27-0.69,2.26-1.71,2.95-3.06c0.69-1.35,1.04-2.88,1.04-4.59c0-1.69-0.33-3.2-0.99-4.52
		c-0.66-1.33-1.62-2.37-2.88-3.11c-1.26-0.74-2.67-1.12-4.23-1.12c-2.39,0-4.34,0.79-5.85,2.38c-1.51,1.58-2.27,3.77-2.27,6.57
		C173.6,273.81,173.93,275.21,174.58,276.54 M151.97,280.56v-7.67h7.98v-1.98h-7.98v-5.25h9.22v-1.98h-11.48v16.88H151.97z
		 M127.32,280.56v-7.67h7.98v-1.98h-7.98v-5.25h9.22v-1.98h-11.47v16.88H127.32z M103.88,268.69c0.38-1.07,0.68-2.16,0.93-3.26
		c0.27,0.92,0.67,2.1,1.21,3.52l1.78,4.68h-5.79L103.88,268.69z M99.51,280.56l1.87-5.12h7.13l1.94,5.12H113l-6.9-16.88h-2.47
		l-6.51,16.88H99.51z"/>
	<path class="st2" d="M563.61,280.56v-1.98h-10.37v-5.76h9.32v-1.98h-9.32v-5.19h9.96v-1.98h-12.22v16.88H563.61z M525.88,265.56
		h5.37c1.25,0,2.17,0.26,2.75,0.77c0.58,0.51,0.87,1.17,0.87,1.96c0,0.54-0.15,1.05-0.45,1.51c-0.3,0.46-0.74,0.8-1.31,1.01
		c-0.58,0.21-1.38,0.32-2.4,0.32h-4.82V265.56z M525.88,280.56v-7.5h2.6c0.58,0,1,0.03,1.25,0.08c0.34,0.08,0.69,0.23,1.02,0.44
		c0.34,0.21,0.72,0.59,1.14,1.13c0.42,0.54,0.96,1.32,1.62,2.33l2.24,3.52h2.8l-2.93-4.61c-0.58-0.9-1.2-1.65-1.86-2.25
		c-0.31-0.28-0.76-0.56-1.35-0.84c1.63-0.22,2.83-0.74,3.61-1.56c0.78-0.82,1.17-1.83,1.17-3.02c0-0.93-0.24-1.77-0.71-2.54
		c-0.47-0.76-1.1-1.3-1.88-1.6c-0.79-0.3-1.93-0.45-3.44-0.45h-7.53v16.88H525.88z M502.51,268.69c0.38-1.07,0.68-2.16,0.93-3.26
		c0.27,0.92,0.67,2.1,1.2,3.52l1.78,4.68h-5.78L502.51,268.69z M498.14,280.56l1.87-5.12h7.13l1.94,5.12h2.55l-6.9-16.88h-2.47
		l-6.52,16.88H498.14z M480.62,277.84c-0.87,0.72-1.93,1.08-3.18,1.08c-1.03,0-1.99-0.27-2.87-0.8c-0.89-0.53-1.54-1.33-1.96-2.4
		c-0.42-1.07-0.63-2.32-0.63-3.76c0-1.11,0.18-2.19,0.53-3.24c0.35-1.05,0.96-1.88,1.84-2.5c0.87-0.62,1.96-0.93,3.25-0.93
		c1.13,0,2.06,0.28,2.81,0.84c0.74,0.56,1.31,1.45,1.7,2.68l2.22-0.52c-0.45-1.56-1.26-2.76-2.41-3.62
		c-1.16-0.86-2.58-1.29-4.27-1.29c-1.49,0-2.86,0.34-4.1,1.02c-1.24,0.68-2.2,1.67-2.87,2.98c-0.67,1.31-1.01,2.84-1.01,4.6
		c0,1.61,0.3,3.12,0.9,4.52c0.6,1.41,1.47,2.48,2.61,3.22c1.14,0.74,2.63,1.11,4.45,1.11c1.76,0,3.26-0.48,4.48-1.44
		c1.22-0.96,2.07-2.36,2.54-4.2l-2.26-0.56C482.08,276.05,481.49,277.12,480.62,277.84z M440.27,280.56v-1.98h-10.36v-5.76h9.32
		v-1.98h-9.32v-5.19h9.96v-1.98h-12.21v16.88H440.27z M408.6,280.56v-7.15l6.76-9.73h-2.61l-3.3,4.96c-0.72,1.11-1.33,2.1-1.85,2.97
		c-0.52-0.95-1.11-1.89-1.74-2.83l-3.35-5.1h-2.7l6.53,9.73v7.15H408.6z M388.29,280.56v-1.98h-10.36v-5.76h9.32v-1.98h-9.32v-5.19
		h9.96v-1.98h-12.21v16.88H388.29z M345.54,280.56v-1.98h-10.36v-5.76h9.32v-1.98h-9.32v-5.19h9.96v-1.98h-12.21v16.88H345.54z
		 M319.99,280.56v-1.98h-8.35v-14.9h-2.25v16.88H319.99z M285.66,272.76h3.93c1.08,0,1.91,0.1,2.48,0.29
		c0.58,0.19,1.02,0.52,1.35,0.98c0.32,0.47,0.49,1.02,0.49,1.65c0,0.54-0.11,1.01-0.33,1.43c-0.22,0.41-0.51,0.73-0.86,0.94
		c-0.35,0.22-0.78,0.37-1.3,0.46c-0.29,0.05-0.8,0.08-1.53,0.08h-4.23V272.76z M285.66,265.66h3.39c1.22,0,2.08,0.08,2.58,0.24
		c0.5,0.16,0.89,0.45,1.16,0.88c0.27,0.43,0.4,0.92,0.4,1.49c0,0.59-0.14,1.09-0.43,1.48c-0.29,0.39-0.72,0.67-1.29,0.85
		c-0.43,0.13-1.15,0.2-2.14,0.2h-3.67V265.66z M289.87,280.56c1.08,0,1.99-0.09,2.74-0.28c0.74-0.19,1.36-0.47,1.86-0.84
		c0.49-0.37,0.91-0.89,1.24-1.57c0.34-0.68,0.51-1.41,0.51-2.2c0-0.98-0.28-1.83-0.83-2.55c-0.55-0.72-1.34-1.23-2.36-1.53
		c0.8-0.39,1.39-0.91,1.79-1.54c0.4-0.64,0.59-1.32,0.59-2.04c0-0.77-0.22-1.52-0.67-2.23c-0.45-0.71-1.06-1.24-1.84-1.58
		c-0.79-0.34-1.83-0.51-3.13-0.51h-6.38v16.88H289.87z M262.39,268.69c0.38-1.07,0.68-2.16,0.93-3.26c0.27,0.92,0.68,2.1,1.21,3.52
		l1.78,4.68h-5.79L262.39,268.69z M258.02,280.56l1.87-5.12h7.13l1.94,5.12h2.56l-6.89-16.88h-2.47l-6.52,16.88H258.02z
		 M232.44,265.66H236c1.33,0,2.3,0.11,2.9,0.35c0.83,0.32,1.54,0.96,2.12,1.91c0.58,0.95,0.87,2.31,0.87,4.08
		c0,1.28-0.15,2.37-0.44,3.26c-0.3,0.89-0.71,1.61-1.24,2.14c-0.38,0.38-0.89,0.67-1.52,0.88c-0.64,0.21-1.51,0.31-2.63,0.31h-3.62
		V265.66z M236.31,280.56c1.03,0,1.93-0.1,2.73-0.29c0.79-0.19,1.47-0.47,2.03-0.85c0.56-0.37,1.07-0.88,1.54-1.53
		c0.47-0.65,0.86-1.47,1.16-2.46c0.3-0.99,0.45-2.13,0.45-3.41c0-1.51-0.22-2.84-0.66-4.01c-0.44-1.17-1.12-2.13-2.01-2.88
		c-0.69-0.58-1.52-0.99-2.49-1.21c-0.69-0.16-1.7-0.24-3.02-0.24h-5.85v16.88H236.31z M205.18,265.56h5.36
		c1.25,0,2.17,0.26,2.75,0.77c0.58,0.51,0.87,1.17,0.87,1.96c0,0.54-0.15,1.05-0.45,1.51c-0.3,0.46-0.74,0.8-1.31,1.01
		c-0.57,0.21-1.38,0.32-2.4,0.32h-4.82V265.56z M205.18,280.56v-7.5h2.6c0.58,0,0.99,0.03,1.25,0.08c0.35,0.08,0.69,0.23,1.02,0.44
		c0.34,0.21,0.71,0.59,1.14,1.13c0.42,0.54,0.97,1.32,1.62,2.33l2.24,3.52h2.8l-2.93-4.61c-0.58-0.9-1.2-1.65-1.86-2.25
		c-0.31-0.28-0.76-0.56-1.35-0.84c1.62-0.22,2.83-0.74,3.61-1.56c0.78-0.82,1.17-1.83,1.17-3.02c0-0.93-0.24-1.77-0.71-2.54
		c-0.47-0.76-1.1-1.3-1.88-1.6c-0.79-0.3-1.94-0.45-3.45-0.45h-7.53v16.88H205.18z M177.64,266.92c1.14-1.09,2.51-1.63,4.09-1.63
		c1.12,0,2.12,0.28,3.02,0.85c0.9,0.56,1.58,1.36,2.04,2.38c0.47,1.02,0.7,2.22,0.7,3.6c0,2.17-0.54,3.85-1.64,5.03
		c-1.09,1.18-2.48,1.77-4.16,1.77c-1.66,0-3.03-0.59-4.13-1.76c-1.1-1.17-1.65-2.77-1.65-4.81
		C175.92,269.82,176.5,268.01,177.64,266.92z M174.58,276.54c0.65,1.33,1.6,2.37,2.86,3.14c1.26,0.77,2.68,1.15,4.28,1.15
		c1.47,0,2.85-0.35,4.12-1.04c1.27-0.69,2.26-1.71,2.95-3.06c0.69-1.35,1.04-2.88,1.04-4.59c0-1.69-0.33-3.2-0.99-4.52
		c-0.66-1.33-1.62-2.37-2.88-3.11c-1.26-0.74-2.67-1.12-4.23-1.12c-2.39,0-4.34,0.79-5.85,2.38c-1.51,1.58-2.27,3.77-2.27,6.57
		C173.6,273.81,173.93,275.21,174.58,276.54z M151.97,280.56v-7.67h7.98v-1.98h-7.98v-5.25h9.22v-1.98h-11.48v16.88H151.97z
		 M127.32,280.56v-7.67h7.98v-1.98h-7.98v-5.25h9.22v-1.98h-11.47v16.88H127.32z M103.88,268.69c0.38-1.07,0.68-2.16,0.93-3.26
		c0.27,0.92,0.67,2.1,1.21,3.52l1.78,4.68h-5.79L103.88,268.69z M99.51,280.56l1.87-5.12h7.13l1.94,5.12H113l-6.9-16.88h-2.47
		l-6.51,16.88H99.51z"/>
	<path class="st3" d="M285.69,78.43h-7.93c-3.18,0-22.12,12.43-23.85,22.25c-1.73,9.83,5.49,17.92,5.49,17.92l16.18-6.36l8.09-20.23
		c0,0,1.16-7.57,3.76-8.67c2.6-1.09,17.63-2.6,19.36-2.02c1.73,0.58,2.89,5.49,5.78,7.51c2.89,2.02,12.72,15.02,12.72,15.02
		l5.2,12.71l13.58-1.73l-2.02-20.81L323.54,76.7c0,0-9.82,1.73-12.71,2.02c-2.89,0.29-16.49-0.06-16.49-0.06l-10.38,1.5
		L285.69,78.43z"/>
	<path class="st4" d="M284.93,86.06c0.01-0.01,0.03-0.01,0.04-0.01c-10.67,4.65-18.71,14.86-20.1,26.93
		c-2.79-1.55-5.89-1.55-8.21-1.39c1.86-14.84,11.58-27.21,24.71-33.11C282.61,81.1,283.85,83.58,284.93,86.06 M309.71,85.28
		c1.09-2.48,2.32-5.11,3.72-7.59c-4.8-1.86-9.76-2.79-15.18-2.79c-6.03,0-11.75,1.39-16.85,3.55c0.01-0.01,0.03-0.02,0.04-0.02
		c-18.59-33.92-54.68-56.84-96.19-56.84c-46.78,0-86.59,29.12-102.38,70.32H20.45v78.22h62.42c15.8,41.2,55.6,70.32,102.38,70.32
		c60.41,0,109.51-48.94,109.51-109.35c0-16.11-3.4-31.28-9.75-45.06c4.16-1.68,8.62-2.61,13.24-2.61
		C302.28,83.42,306.15,84.04,309.71,85.28 M575.2,170.16V91.94h-63.97c-15.8-41.2-55.61-70.32-102.23-70.32
		c-41.05,0-76.83,22.62-95.57,56.07c14.72,5.73,25.56,19.36,26.95,35.78c-3.57-4.03-8.68-4.49-8.68-4.49l-0.46,0.31
		c-2.63-11.15-11-20.29-21.53-24.01c-6.51,13.94-10.22,29.43-10.22,45.85c0,60.41,49.1,109.35,109.51,109.35
		c46.62,0,86.43-29.12,102.23-70.32H575.2z"/>
	<path class="st5" d="M284.93,86.06c0.01-0.01,0.03-0.01,0.04-0.01c-10.67,4.65-18.71,14.86-20.1,26.93
		c-2.79-1.55-5.89-1.55-8.21-1.39c1.86-14.84,11.58-27.21,24.71-33.11C282.61,81.1,283.85,83.58,284.93,86.06z M309.71,85.28
		c1.09-2.48,2.32-5.11,3.72-7.59c-4.8-1.86-9.76-2.79-15.18-2.79c-6.03,0-11.75,1.39-16.85,3.55c0.01-0.01,0.03-0.02,0.04-0.02
		c-18.59-33.92-54.68-56.84-96.19-56.84c-46.78,0-86.59,29.12-102.38,70.32H20.45v78.22h62.42c15.8,41.2,55.6,70.32,102.38,70.32
		c60.41,0,109.51-48.94,109.51-109.35c0-16.11-3.4-31.28-9.75-45.06c4.16-1.68,8.62-2.61,13.24-2.61
		C302.28,83.42,306.15,84.04,309.71,85.28z M575.2,170.16V91.94h-63.97c-15.8-41.2-55.61-70.32-102.23-70.32
		c-41.05,0-76.83,22.62-95.57,56.07c14.72,5.73,25.56,19.36,26.95,35.78c-3.57-4.03-8.68-4.49-8.68-4.49l-0.46,0.31
		c-2.63-11.15-11-20.29-21.53-24.01c-6.51,13.94-10.22,29.43-10.22,45.85c0,60.41,49.1,109.35,109.51,109.35
		c46.62,0,86.43-29.12,102.23-70.32H575.2z"/>
	<path class="st0" d="M264.87,112.97c-2.79-1.55-5.89-1.55-8.21-1.39c1.86-14.87,11.62-27.26,24.78-33.15
		c-18.59-33.92-54.68-56.85-96.19-56.85c-46.78,0-86.59,29.12-102.38,70.32H20.44v78.22h62.42c15.8,41.2,55.61,70.32,102.38,70.32
		c60.41,0,109.51-48.95,109.51-109.35c0-16.11-3.41-31.29-9.76-45.07C274.31,90.67,266.26,100.89,264.87,112.97"/>
	<path class="st4" d="M511.23,91.94c-15.8-41.2-55.61-70.32-102.23-70.32c-41.05,0-76.83,22.61-95.57,56.07
		c14.72,5.73,25.56,19.36,26.95,35.78c-3.57-4.03-8.68-4.49-8.68-4.49l-0.46,0.31c-2.63-11.15-10.99-20.29-21.53-24.01
		c-6.51,13.94-10.22,29.43-10.22,45.85c0,60.41,49.1,109.36,109.51,109.36c46.62,0,86.43-29.12,102.23-70.32h63.97V91.94H511.23z"/>
	<path class="st3" d="M133.97,145c0-6.35-3.56-9.29-8.83-12.55l-11.46-6.81c-3.87-2.32-4.49-5.42-4.49-7.43
		c0-2.79,2.17-6.97,8.05-6.97c4.65,0,9.45,2.32,11.77,13.01h1.55l-0.31-14.4h-1.24c-0.31,0.31-0.93,1.08-1.86,1.08
		c-1.7,0-5.11-2.17-9.6-2.17c-10.38,0-14.87,7.12-14.87,13.01c0,7.9,5.73,11.77,12.39,15.49l6.04,3.41c3.41,1.86,5.58,4.65,5.58,7.9
		c0,5.89-4.96,7.59-8.52,7.59c-10.53,0-12.55-8.98-13.78-14.71h-1.71v16.42h1.39c0.62-0.93,1.08-1.24,2.33-1.24
		c2.94,0,7.59,2.01,12.39,2.01C125.46,158.63,133.97,154.14,133.97,145 M177.65,135.24c-0.15,17.97-9.6,19.83-13.17,19.83
		c-5.89,0-10.84-4.34-10.84-6.82v-13.01v-13.01c0.62-4.02,6.66-6.97,10.38-6.97c13.01,0,13.63,17.04,13.63,19.51V135.24z
		 M186.48,135.24c0.16-1.24,0.16-2.48,0.16-3.56c0-14.25-8.05-22.92-17.5-22.92c-8.21,0-13.01,5.26-15.18,8.21l-0.31-0.16v-7.74
		l-0.62-0.31c-5.11,2.01-10.07,3.87-15.34,5.42v1.86c1.08-0.16,2.17-0.16,3.1-0.16c3.72,0,4.03,1.71,4.03,6.04v13.32v36.09
		c0,4.65-0.46,6.81-7.43,7.43v1.86h25.71v-2.01c-7.74,0-9.45-1.08-9.45-8.05v-16.58c3.57,3.41,6.51,4.65,10.69,4.65
		C177.81,158.63,185.24,146.55,186.48,135.24 M198.56,124.86c0.47-2.48,1.09-4.49,1.86-6.19c2.17-4.49,5.58-6.04,9.91-6.04
		c5.11,0,7.59,2.79,8.67,6.04c0.77,2.01,1.09,4.18,1.39,6.19H198.56z M233.26,140.98l-1.71-0.78c-2.48,3.87-7.12,11.15-16.42,11.15
		c-6.97,0-15.64-4.34-16.88-23.23h32.99c-0.31-3.56-1.08-6.81-2.32-9.45c-3.1-6.82-9.14-9.91-16.42-9.91
		c-5.42,0-12.85,2.79-17.5,9.91c-2.32,4.03-4.03,9.29-4.03,16.26c0,15.02,8.06,23.7,19.83,23.7
		C226.14,158.63,232.18,144.23,233.26,140.98 M277.56,141.9l-1.71-0.77c-3.56,5.27-7.28,9.91-15.02,9.91
		c-8.83,0-16.26-8.05-16.26-20.29c0-15.49,9.76-18.9,13.63-18.9c5.57,0,6.19,1.86,6.97,5.11l0.78,2.33
		c0.62,2.32,2.32,5.11,5.11,4.95c3.25-0.31,4.8-2.32,4.8-4.65c0-2.01-1.24-5.27-4.49-7.59c-2.63-1.55-7.43-3.25-11.15-3.25
		c-11.46,0-23.85,8.83-23.85,26.33c0,16.73,11.46,23.54,19.83,23.54C264.86,158.63,271.67,153.98,277.56,141.9 M348.44,143.06
		c0-6.35-3.72-9.29-8.83-12.55l-11.46-6.82c-4.03-2.32-4.65-5.42-4.65-7.44c0-2.79,2.32-6.97,8.06-6.97
		c4.65,0,9.45,2.32,11.77,13.01h1.55l-0.31-14.41h-1.24c-0.31,0.31-0.77,1.09-1.86,1.09c-1.7,0-4.96-2.17-9.76-2.17
		c-10.22,0-14.71,7.12-14.71,13.01c0,7.9,5.73,11.77,12.39,15.49l6.04,3.41c3.41,2.01,5.58,4.49,5.58,7.9
		c0,6.04-4.96,7.75-8.52,7.75c-10.38,0-12.55-9.14-13.79-14.87h-1.7v16.42h1.39c0.77-0.93,1.09-1.24,2.48-1.24
		c2.79,0,7.44,2.01,12.24,2.01C339.76,156.68,348.44,152.35,348.44,143.06 M380.81,142.59c0,3.25-0.46,4.49-3.57,6.04
		c-1.08,0.62-4.33,2.01-6.66,2.01c-3.87,0-6.97-3.41-6.97-8.36v-0.16c0-0.93,0-2.17,0.46-3.25c1.09-3.41,4.8-7.59,16.73-11.62v11.62
		V142.59z M397.23,148.63c-1.24,0.93-2.63,2.01-4.8,2.01c-3.1,0-3.1-3.1-3.1-6.04v-5.73v-15.02c0-6.35,0-17.04-15.8-17.04
		c-12.23,0-17.19,7.59-17.19,11.93c0,1.55,1.24,4.65,4.49,4.65c2.79,0,4.8-2.48,4.8-4.65c0-0.93-0.46-2.48-0.46-4.18
		c0-3.25,3.87-5.11,7.43-5.11c3.1,0,8.21,1.08,8.21,8.83v6.51c-13.01,4.96-21.38,8.37-24.78,14.1c-1.08,2.01-1.7,4.18-1.7,6.82
		c0,7.12,5.57,11,11.15,11c5.89,0,11.46-4.18,15.49-7.74c0.46,7.59,4.8,7.74,6.82,7.74c1.7,0,4.96-0.15,9.45-5.26V148.63z
		 M443.39,109.44v-1.4h-14.56v1.4c2.63,0.31,4.96,1.08,4.96,3.56c0,3.87-7.59,20.45-11.15,30.52l-10.69-27.11
		c-0.47-0.77-1.09-2.48-1.09-3.72c0-2.63,2.33-2.94,4.8-3.25v-1.4H394.9v1.4c2.17,0.31,4.34,0.93,5.89,4.03
		c3.87,7.43,14.1,32.06,16.57,38.72c1.7,4.49,1.86,4.8,2.94,4.8c0.62,0,1.55-2.32,2.63-5.11l13.63-34.08
		C439.21,111.61,439.98,109.91,443.39,109.44 M452.06,122.92c0.62-2.48,1.24-4.49,2.01-6.2c2.17-4.49,5.42-6.04,9.76-6.04
		c5.27,0,7.59,2.79,8.83,6.04c0.78,2.01,1.09,4.18,1.39,6.2H452.06z M486.91,139.03l-1.86-0.77c-2.33,3.87-6.81,11.15-16.26,11.15
		c-7.12,0-15.65-4.34-16.88-23.23h32.99c-0.31-3.56-1.09-6.82-2.32-9.45c-3.1-6.82-9.14-9.91-16.42-9.91
		c-5.42,0-12.86,2.79-17.35,9.91c-2.64,4.03-4.18,9.29-4.18,16.26c0,15.03,8.06,23.7,19.83,23.7
		C479.63,156.68,485.83,142.28,486.91,139.03 M522.07,112.54c0-3.41-2.01-5.73-5.57-5.73c-4.03,0-7.75,2.17-12.55,9.76h-0.31v-9.45
		l-0.62-0.31c-5.11,2.17-10.38,4.18-15.65,5.73v1.7c1.08-0.15,2.17-0.31,3.57-0.31c1.7,0,3.72,0,3.72,6.35v26.49
		c0,5.88-1.7,6.2-7.44,7.28v1.39h25.4v-1.39c-5.42-0.31-8.98-0.78-8.98-8.05v-23.7c0-3.41,4.64-8.83,7.12-8.83
		c2.63,0,3.56,3.72,7.28,3.72C520.68,117.19,522.07,115.33,522.07,112.54 M531.68,116.26c0-2.79,2.01-6.97,7.9-6.97
		c4.8,0,9.45,2.32,11.77,13.01h1.55l-0.31-14.41h-1.24c-0.31,0.31-0.77,1.09-1.7,1.09c-1.86,0-5.11-2.17-9.91-2.17
		c-10.22,0-14.71,7.12-14.71,13.01c0,7.9,5.73,11.77,12.39,15.49l6.19,3.41c3.41,2.01,5.42,4.49,5.42,7.9
		c0,6.04-4.96,7.75-8.52,7.75c-10.38,0-12.39-9.14-13.63-14.87h-1.7v16.42h1.24c0.77-0.93,1.24-1.24,2.48-1.24
		c2.94,0,7.43,2.01,12.24,2.01c6.82,0,15.33-4.34,15.33-13.63c0-6.35-3.72-9.29-8.98-12.55l-11.31-6.82
		C532.3,121.37,531.68,118.27,531.68,116.26"/>
	<path class="st4" d="M298.25,74.9c-6.04,0-11.77,1.39-16.89,3.56c1.24,2.63,2.48,5.11,3.57,7.59c4.18-1.7,8.67-2.63,13.32-2.63
		c4.03,0,7.9,0.62,11.46,1.86c1.08-2.48,2.32-5.11,3.72-7.59C308.63,75.83,303.67,74.9,298.25,74.9"/>
</g>
</svg>
